<?xml version="1.0" encoding="UTF-8"?>
<svg width="27px" height="26px" viewBox="0 0 27 26" version="1.1" xmlns="http://www.w3.org/2000/svg" xmlns:xlink="http://www.w3.org/1999/xlink">
    <!-- Generator: Sketch 59 (86127) - https://sketch.com -->
    <title>-mockplus-</title>
    <desc>Created with Sketch.</desc>
    <g id="页面-1" stroke="none" stroke-width="1" fill="none" fill-rule="evenodd" fill-opacity="0.4">
        <g id="4" transform="translate(-276.000000, -266.000000)" fill="#FFFFFF">
            <g id="-mockplus-" transform="translate(276.595632, 266.000000)">
                <g id="形状结合" transform="translate(0.404368, 0.000000)">
                    <path d="M13,6.39488462e-14 C20.1797017,6.39488462e-14 26,5.82029825 26,13 C26,20.1797017 20.1797017,26 13,26 C5.82029825,26 2.13162821e-14,20.1797017 2.13162821e-14,13 C2.13162821e-14,5.82029825 5.82029825,6.39488462e-14 13,6.39488462e-14 Z M18.1721194,7.82788059 C17.9182786,7.5740398 17.5067214,7.5740398 17.2528806,7.82788059 L17.2528806,7.82788059 L12.9995,12.0805 L8.74711941,7.82788059 L8.66655111,7.75934358 C8.41254434,7.57657821 8.0563373,7.59942388 7.82788059,7.82788059 L7.82788059,7.82788059 L7.75934358,7.90844889 C7.57657821,8.16245566 7.59942388,8.5186627 7.82788059,8.74711941 L7.82788059,8.74711941 L12.0805,12.9995 L7.82788059,17.2528806 L7.75934358,17.3334489 C7.57657821,17.5874557 7.59942388,17.9436627 7.82788059,18.1721194 L7.82788059,18.1721194 L7.90844889,18.2406564 C8.16245566,18.4234218 8.5186627,18.4005761 8.74711941,18.1721194 L8.74711941,18.1721194 L12.9995,13.9185 L17.2528806,18.1721194 L17.3334489,18.2406564 C17.5874557,18.4234218 17.9436627,18.4005761 18.1721194,18.1721194 L18.1721194,18.1721194 L18.2406564,18.0915511 C18.4234218,17.8375443 18.4005761,17.4813373 18.1721194,17.2528806 L18.1721194,17.2528806 L13.9185,12.9995 L18.1721194,8.74711941 L18.2406564,8.66655111 C18.4234218,8.41254434 18.4005761,8.0563373 18.1721194,7.82788059 Z"></path>
                </g>
            </g>
        </g>
    </g>
</svg>