<?xml version="1.0" encoding="UTF-8"?>
<svg width="39px" height="38px" viewBox="0 0 39 38" version="1.1" xmlns="http://www.w3.org/2000/svg" xmlns:xlink="http://www.w3.org/1999/xlink">
    <!-- Generator: Sketch 59 (86127) - https://sketch.com -->
    <title>-mockplus-</title>
    <desc>Created with Sketch.</desc>
    <g id="页面-1" stroke="none" stroke-width="1" fill="none" fill-rule="evenodd">
        <g id="1" transform="translate(-327.000000, -637.000000)">
            <g id="-mockplus-" transform="translate(327.000000, 637.000000)">
                <g id="复位备份" transform="translate(4.000000, 4.000000)">
                    <path d="M15,5 C20.5228475,5 25,9.4771525 25,15 C25,20.5228475 20.5228475,25 15,25 C9.4771525,25 5,20.5228475 5,15 C5,9.4771525 9.4771525,5 15,5 Z M14.8744884,18.6984086 C14.5397908,18.6984086 14.2385629,18.7988179 14.0042746,19.0331062 C13.7699863,19.2506596 13.6528421,19.5351526 13.6528421,19.8865851 C13.6528421,20.2212827 13.7699863,20.5057757 14.0042746,20.740064 C14.2385629,20.9743523 14.5397908,21.0914965 14.8744884,21.0914965 C15.209186,21.0914965 15.5104139,20.9743523 15.7447022,20.7567989 C15.9789905,20.5225106 16.1128696,20.2380176 16.1128696,19.8865851 C16.1128696,19.5351526 15.9957254,19.2506596 15.7614371,19.0331062 C15.5271487,18.7988179 15.2259209,18.6984086 14.8744884,18.6984086 Z M15.1757162,8.90850351 C13.9373351,8.90850351 12.966712,9.259936 12.263847,9.97953586 C11.5609821,10.6824008 11.2095496,11.636289 11.2095496,12.8579353 L12.966712,12.8579353 C12.966712,12.1216006 13.1173259,11.5526146 13.4185538,11.1509775 C13.7532514,10.665666 14.3055025,10.4313776 15.0585721,10.4313776 C15.6610278,10.4313776 16.1463393,10.5987264 16.4810369,10.933424 C16.7989997,11.2681217 16.9663485,11.7199634 16.9663485,12.3056842 C16.9663485,12.7407911 16.7989997,13.1424283 16.4977718,13.5273305 L16.2132788,13.8452932 C15.1757162,14.7657117 14.5397908,15.4518418 14.3222373,15.9204184 C14.087949,16.3555253 13.9875397,16.8910415 13.9875397,17.5102321 L13.9875397,17.794725 L15.7781719,17.794725 L15.7781719,17.5102321 C15.7781719,17.1085949 15.8618463,16.7404276 16.04593,16.40573 C16.196544,16.1045021 16.4308323,15.8032743 16.748795,15.5355162 L17.4293468,14.9330605 C17.8123896,14.5872063 18.0541157,14.352918 18.154525,14.2301955 C18.572897,13.6946793 18.7904504,13.0085492 18.7904504,12.1885401 C18.7904504,11.1844473 18.4557528,10.381173 17.7863576,9.79545217 C17.1169624,9.19299648 16.2467486,8.90850351 15.1757162,8.90850351 Z" id="形状结合" fill-opacity="0.8" fill="#FFFFFF"></path>
                    <circle id="椭圆形" stroke-opacity="0.35" stroke="#FFFFFF" stroke-width="0.5" cx="15" cy="15" r="14.75"></circle>
                </g>
            </g>
        </g>
    </g>
</svg>