<?xml version="1.0" encoding="UTF-8"?>
<svg width="39px" height="38px" viewBox="0 0 39 38" version="1.1" xmlns="http://www.w3.org/2000/svg" xmlns:xlink="http://www.w3.org/1999/xlink">
    <!-- Generator: Sketch 59 (86127) - https://sketch.com -->
    <title>-mockplus-</title>
    <desc>Created with Sketch.</desc>
    <g id="页面-1" stroke="none" stroke-width="1" fill="none" fill-rule="evenodd">
        <g id="1" transform="translate(-327.000000, -683.000000)">
            <g id="-mockplus-" transform="translate(327.000000, 683.000000)">
                <g id="复位" transform="translate(4.000000, 4.000000)">
                    <path d="M15.4666667,2.86666667 L15.4671219,5.01071713 C20.6182907,5.24757812 24.7524219,9.38170932 24.9892829,14.5328781 L27.1333333,14.5333333 L27.1333333,15.4666667 L24.9893287,15.4661231 C24.7529563,20.6177563 20.6186236,24.7524066 15.4671219,24.9892829 L15.4666667,27.1333333 L14.5333333,27.1333333 L14.5328781,24.9892829 C9.38137639,24.7524066 5.24704372,20.6177563 5.01067125,15.4661231 L2.86666667,15.4666667 L2.86666667,14.5333333 L5.01071713,14.5328781 C5.24757812,9.38170932 9.38170932,5.24757812 14.5328781,5.01071713 L14.5333333,2.86666667 L15.4666667,2.86666667 Z M15,13 C13.8954305,13 13,13.8954305 13,15 C13,16.1045695 13.8954305,17 15,17 C16.1045695,17 17,16.1045695 17,15 C17,13.8954305 16.1045695,13 15,13 Z" id="形状结合" fill-opacity="0.8" fill="#FFFFFF"></path>
                    <circle id="椭圆形" stroke-opacity="0.35" stroke="#FFFFFF" stroke-width="0.5" cx="15" cy="15" r="14.75"></circle>
                </g>
            </g>
        </g>
    </g>
</svg>